<svg xmlns="http://www.w3.org/2000/svg" viewBox="0 0 155.49 155.11">
    <defs>
        <style>
        .a {
            fill: #1d1b59;
        }
        </style>
    </defs>
    <path class="a" d="M106,155.11c-2.24-.38-4.49-.67-6.7-1.17-22.14-5-37.48-25.4-35.72-47.93,1.26-16,9.09-28.27,22.91-36.59a2.31,2.31,0,0,0,1.35-2.35c-.08-3.13,0-6.26,0-9.39,0-3.43,1.82-5.29,5.21-5.29H126c3.31,0,5.14,1.85,5.16,5.18s0,6.56,0,9.84a1.77,1.77,0,0,0,1,1.79c13.54,8,21.29,19.87,23.14,35.51a3.53,3.53,0,0,0,.24.69v5.46c-.11.27-.24.54-.33.82A9.75,9.75,0,0,1,136,109.36a35,35,0,0,0-.34-4.22,26.47,26.47,0,0,0-52.45,7.12c1.42,11.18,7.78,18.81,18.5,22.12s20.14.34,27.77-7.93c1.08-1.17,2-2.52,3-3.86,5.55,5.07,11.95,6.53,19.3,4.49-.22.57-.33,1-.5,1.29C145,141.29,135,149.76,121.12,153.58c-2.56.7-5.23,1-7.84,1.53Z" />
    <path class="a" d="M0,105.4c.5-2.61.85-5.26,1.54-7.82A45.21,45.21,0,0,1,23,69.44,2.4,2.4,0,0,0,24.39,67c-.06-3.13,0-6.26,0-9.39,0-3.32,1.86-5.17,5.17-5.17H62.49c3.32,0,5.17,1.85,5.19,5.15,0,3,.09,6.06,0,9.09-.06,1.43.23,2.42,1.66,2.93a6.68,6.68,0,0,1,1.13.74,56.09,56.09,0,0,0-11.08,16c-7-3.74-14.21-4.64-21.73-2.15a26,26,0,0,0-13.36,10,26.44,26.44,0,0,0,16.67,41,26.62,26.62,0,0,0,18.39-3,56.89,56.89,0,0,0,11.14,16,43.5,43.5,0,0,1-14,5.83c-2.21.49-4.45.82-6.67,1.22H42.52a9.77,9.77,0,0,0-1.17-.25,46,46,0,0,1-39.52-33c-.83-3-1.23-6.1-1.83-9.15Z" />
    <path class="a" d="M73.59,31a16,16,0,0,1-11,10.8l.09,1.36a1.32,1.32,0,0,1-.38.13c-2.63,0-5.26.06-7.89,0A2.11,2.11,0,0,1,53,42.49c-3-4.24-8.31-4.24-11.27,0a1.74,1.74,0,0,1-1.13.75c-2.82.06-5.65,0-8.68,0,1.35-6.49,5.2-10.51,11.36-12.59-1.24-5.72,0-10.85,4.12-15s9.35-5.35,15.08-4.18C65.2,4.16,70.22-.15,78.1,0,85.63.15,90.42,4.41,93,11.47c5.72-1.16,10.89-.06,15.08,4.15s5.39,9.22,4.14,15.07a16,16,0,0,1,11.4,12.59c-3.08,0-6,0-9,0-.29,0-.64-.41-.85-.71-3-4.34-8.22-4.31-11.34.05a1.72,1.72,0,0,1-1.17.67c-2.78.06-5.56,0-8.46,0l.12-1.48A16,16,0,0,1,81.91,31ZM65,26.64a6.46,6.46,0,0,0-6.54-6.5,6.53,6.53,0,0,0-6.54,6.53,6.63,6.63,0,0,0,6.57,6.55A6.55,6.55,0,0,0,65,26.64Zm25.45-.05a6.55,6.55,0,0,0,6.46,6.63,6.64,6.64,0,0,0,6.62-6.5,6.54,6.54,0,0,0-13.08-.13Zm-12.7-4.51a6.53,6.53,0,1,0-6.59-6.49A6.56,6.56,0,0,0,77.77,22.08Z" />
</svg>