<svg version="1.0" xmlns="http://www.w3.org/2000/svg"
 viewBox="0 0 1280.000000 960.000000"
 preserveAspectRatio="xMidYMid meet">
<g transform="translate(0.000000,960.000000) scale(0.100000,-0.100000)"
fill="rgba(168, 166, 245,0.3)" stroke="none">
<path d="M0 9525 l0 -75 83 -60 c45 -33 647 -470 1337 -971 690 -502 2078
-1510 3083 -2241 1006 -732 1831 -1328 1833 -1325 2 2 -28 33 -68 68 -236 209
-5165 4648 -5177 4662 -12 16 -58 17 -552 17 l-539 0 0 -75z"/>
<path d="M2185 9483 c58 -65 1018 -1131 2133 -2370 1492 -1658 2029 -2248
2035 -2238 5 10 -247 587 -766 1752 -426 956 -897 2016 -1048 2355 l-274 617
-319 1 -318 0 14 -22 c12 -19 1469 -2542 2432 -4212 152 -264 274 -481 272
-483 -3 -3 -2135 2926 -3096 4254 l-335 462 -418 1 -418 0 106 -117z"/>
<path d="M4890 9453 c48 -146 840 -2586 1265 -3896 209 -644 216 -668 201
-692 -9 -14 -19 -25 -21 -25 -4 0 -1684 969 -5245 3024 l-1085 626 -3 -417
c-1 -229 1 -420 5 -424 5 -4 352 -160 773 -347 421 -187 1721 -766 2890 -1287
1169 -521 2248 -1001 2397 -1068 150 -66 271 -122 270 -124 -3 -2 -1644 530
-5387 1746 l-945 307 -3 -355 c-1 -195 0 -356 2 -359 3 -2 96 -23 208 -47 112
-24 937 -199 1833 -390 1501 -319 3691 -785 4085 -870 91 -19 169 -35 174 -35
5 0 7 -2 4 -5 -3 -3 -137 8 -299 25 -343 36 -1351 141 -1959 205 -234 25 -771
81 -1195 125 -1527 160 -2761 290 -2808 296 l-47 7 0 -337 0 -336 3189 2
c1754 2 3193 7 3198 11 4 5 9 1084 11 2398 l2 2389 -250 0 c-181 0 -250 -3
-250 -11 0 -7 29 -291 65 -633 82 -780 304 -2892 350 -3331 19 -181 44 -419
55 -529 12 -109 19 -200 17 -202 -2 -2 -59 254 -126 568 -174 816 -695 3262
-791 3718 -45 212 -83 393 -86 403 -5 16 -27 17 -274 17 l-268 0 48 -147z"/>
<path d="M6902 9568 c-1 -18 -18 -181 -37 -363 -19 -181 -68 -652 -110 -1045
-41 -393 -135 -1294 -210 -2001 -74 -707 -135 -1303 -135 -1323 l0 -37 43 5
c23 4 602 65 1287 136 685 72 1414 148 1620 170 206 22 913 96 1570 165 1645
173 1864 196 1867 199 2 2 2 156 1 343 l-3 339 -1615 -343 c-3890 -826 -4683
-994 -4686 -990 -4 4 892 296 4296 1402 l2005 652 3 386 2 386 -77 -35 c-43
-20 -654 -292 -1358 -606 -704 -314 -1525 -679 -1825 -813 -803 -357 -2978
-1325 -3026 -1345 -35 -15 -41 -16 -41 -3 0 15 170 169 2162 1964 638 574
1590 1431 2115 1904 525 473 961 865 970 872 12 10 -91 12 -490 13 l-505 0
-335 -373 c-334 -371 -3817 -4238 -3902 -4331 -24 -27 -47 -45 -50 -40 -4 5
293 682 659 1504 365 822 839 1887 1052 2365 l387 870 -285 3 c-156 1 -285 1
-287 -1 -2 -2 -305 -932 -674 -2068 -828 -2546 -860 -2642 -867 -2649 -3 -3
-3 6 0 20 3 14 47 219 97 455 174 824 891 4200 897 4223 l5 22 -259 0 -259 0
-2 -32z"/>
<path d="M8555 8528 c-340 -590 -950 -1647 -1355 -2348 -759 -1313 -770 -1332
-752 -1315 6 6 268 366 584 800 315 435 1084 1494 1708 2353 624 860 1137
1567 1138 1572 2 6 -129 10 -350 10 l-354 0 -619 -1072z"/>
<path d="M12330 9106 c-357 -260 -2976 -2163 -5587 -4060 -144 -104 -261 -192
-258 -194 2 -2 298 166 657 374 631 365 3900 2253 5081 2933 l577 334 0 473
c0 261 -3 474 -7 473 -5 0 -213 -150 -463 -333z"/>
<path d="M6720 4790 c-176 -4 -187 -6 -115 -13 44 -4 292 -30 550 -57 259 -27
898 -95 1420 -149 523 -55 1207 -127 1520 -160 314 -33 917 -97 1340 -141 424
-44 895 -94 1048 -110 153 -17 287 -30 298 -30 18 0 19 10 19 335 l0 335
-2942 -2 c-1619 -1 -3031 -5 -3138 -8z"/>
<path d="M5450 4699 c-459 -49 -1368 -145 -2020 -214 -652 -68 -1690 -177
-2308 -242 l-1122 -118 0 -342 c0 -189 2 -343 4 -343 2 0 491 104 1087 230
596 127 1910 406 2919 621 1009 214 1942 412 2073 440 131 28 240 49 242 47 4
-3 -1051 -347 -4984 -1625 -734 -238 -1336 -434 -1338 -436 -2 -2 -2 -175 -1
-385 l3 -381 1560 695 c3625 1614 4758 2117 4770 2117 7 0 11 6 8 14 -3 7 -17
12 -32 12 -14 -1 -402 -41 -861 -90z"/>
<path d="M6360 4781 c17 -12 11 -20 -18 -26 -11 -2 -1376 -786 -3033 -1743
-1658 -957 -3080 -1777 -3161 -1823 l-147 -84 -1 -479 c0 -381 3 -476 13 -469
43 35 6244 4536 6297 4572 l35 24 -35 -35 c-19 -20 -1014 -917 -2210 -1994
-1196 -1077 -2365 -2129 -2598 -2338 l-422 -381 499 -3 500 -2 39 42 c22 24
716 794 1543 1713 2459 2732 2676 2972 2692 2972 13 0 13 -4 0 -36 -15 -36
-499 -1124 -1532 -3444 -303 -681 -551 -1240 -551 -1242 0 -3 129 -4 287 -3
l287 3 367 1130 c605 1865 1147 3528 1158 3555 5 14 10 21 10 17 1 -13 -984
-4653 -995 -4689 -5 -17 12 -18 255 -18 239 0 261 1 261 17 0 16 90 877 190
1823 95 894 300 2868 303 2905 2 36 -1 40 -23 43 -19 2 -22 1 -10 -7z"/>
<path d="M6411 4759 c0 -25 2 -29 8 -16 4 10 11 19 16 19 6 0 9 3 8 7 -1 4 4
8 12 8 8 0 11 -5 8 -10 -4 -6 0 -8 11 -4 10 4 341 -99 804 -249 1884 -612
5490 -1784 5505 -1790 16 -6 17 20 17 355 0 199 -2 361 -5 361 -8 0 -2773 588
-4615 981 -932 199 -1712 364 -1732 366 -37 5 -38 5 -37 -28z"/>
<path d="M6436 4738 c-15 -23 10 -146 479 -2354 272 -1281 498 -2341 501
-2357 l6 -27 270 0 c212 0 269 3 265 13 -7 18 -63 191 -565 1737 -849 2611
-963 2963 -959 2967 2 2 399 -884 882 -1969 483 -1085 956 -2146 1050 -2358
l172 -385 317 -3 c175 -1 315 1 313 5 -6 10 -1310 2269 -2134 3697 -326 566
-592 1030 -590 1032 2 2 3412 -4685 3436 -4725 5 -8 114 -11 422 -9 l416 3
-2129 2364 c-1170 1300 -2128 2366 -2128 2369 0 3 8 -2 18 -10 82 -71 5220
-4698 5231 -4711 12 -16 60 -17 553 -17 l539 0 -3 76 -3 77 -1575 1144 c-866
629 -2285 1660 -3152 2290 -868 631 -1576 1149 -1573 1151 2 2 259 -143 572
-324 841 -485 3870 -2233 4861 -2805 474 -275 865 -499 867 -499 3 0 4 189 3
421 l-3 420 -355 158 c-381 169 -1966 876 -4415 1966 -1730 771 -1550 692
-1541 677 9 -15 -6 -16 -21 -1 -8 8 -15 5 -27 -13z"/>
<path d="M5649 3763 c-381 -527 -1152 -1587 -1712 -2358 l-1018 -1400 353 -3
c193 -1 355 1 360 6 4 4 391 671 859 1482 468 811 1078 1868 1356 2348 278
480 503 875 501 877 -2 3 -317 -426 -699 -952z"/>
<path d="M6407 4480 c-4 -113 -7 -1167 -7 -2342 l0 -2138 253 0 253 0 -28 258
c-31 296 -390 3717 -446 4252 l-18 175 -7 -205z"/>
</g>
</svg>
